<?xml version="1.0" encoding="utf-8"?>
<!-- Generator: Adobe Illustrator 28.1.0, SVG Export Plug-In . SVG Version: 6.00 Build 0)  -->
<svg version="1.1" id="Слой_1" xmlns="http://www.w3.org/2000/svg" xmlns:xlink="http://www.w3.org/1999/xlink" x="0px" y="0px"
	 viewBox="0 0 1417.3 1984.3" style="enable-background:new 0 0 1417.3 1984.3;">
<style type="text/css">
	.st0{fill:#4B368A;}
	.st1{fill:#FFFFFF;}
	.st2{fill:#C99AFF;}
	.st3{fill:#925FFF;}
</style>
<g>
	<g>
		<path class="st0" d="M609.3,795.3c-3.2-7.3-3.1-20.2,0.6-29.2c2.1-5,4.9-9.8,7.4-14.7c2.3-4.5,0.5-8.1-4.5-8.4
			c-2.5-0.1-5,0.1-7.5,0.4c-19.6,2.3-36,11.1-48.1,26.5c-18.9,23.9-24.5,50.7-13.8,79.7c1.6,4.3,2.9,8.2,3.7,12.4
			C548.2,857.4,560.4,810.7,609.3,795.3z"/>
		<path class="st2" d="M698.5,828.7c-1.5-1.8-2.9-3.6-4.5-5.4c-19.3-22.4-43.8-32.2-73.2-29.4c-3.8,0.4-7.5,0.9-11.5,1.4
			c0,0,0,0,0,0c-48.9,15.4-61,62.1-62.1,66.7c0.6,3.4,0.8,6.8,0.5,10.7c-2.4,25.7,3.2,50.2,14.5,73.5c15.9,32.6,39.7,59,66.5,82.7
			c22.1,19.5,46.2,36.5,72,50.9c2.5,1.4,4.9,2.2,7.3,2.4v-249C704.4,833.2,701,831.7,698.5,828.7z"/>
		<path class="st3" d="M876.1,819.7c0.9-14.4-3.8-27.7-11.6-39.8c-13-20-31.1-32.6-54.8-36.4c-2-0.3-5,0.4-6,1.8
			c-1,1.4-0.2,4.2,0.1,6.3c0.1,0.8,0.8,1.4,1.2,2.2c5.6,9.6,8.2,20,6.8,31.1c-0.5,3.6-1.8,7.2-2.5,9.8c-9.6-0.6-18.1-1.9-26.4-1.6
			c-24.3,0.8-44.8,10.3-60.6,29.1c-2.1,2.5-4.1,5.3-6.5,7.6c-2.2,2.2-5,3.3-7.7,3.3v249c2.6,0.2,5.3-0.5,8.1-2.1
			c36.6-20.4,69.8-45.1,97.9-76.4c21.5-23.9,38.4-50.6,48.6-81.3c6.3-18.9,8.6-38.2,5.9-58c-0.4-2.8-0.5-11.7-0.5-14.5
			C868.3,831,875.4,831.3,876.1,819.7z"/>
		<path class="st0" d="M805.9,794.6c3.2-7.3,3.1-20.2-0.6-29.2c-2.1-5-4.9-9.8-7.4-14.7c-2.3-4.5-0.5-8.1,4.5-8.4
			c2.5-0.1,5,0.1,7.5,0.4c19.6,2.3,36,11.1,48.1,26.5c18.9,23.9,24.5,50.7,13.8,79.7c-1.6,4.3-2.9,8.2-3.7,12.4
			C866.9,856.7,854.8,810,805.9,794.6z"/>
	</g>
</g>
</svg>
