<?xml version="1.0" encoding="utf-8"?>
<!-- Generator: Adobe Illustrator 28.1.0, SVG Export Plug-In . SVG Version: 6.00 Build 0)  -->
<svg version="1.1" id="Слой_1" xmlns="http://www.w3.org/2000/svg" xmlns:xlink="http://www.w3.org/1999/xlink" x="0px" y="0px"
	 viewBox="0 0 1417.3 1984.3" style="enable-background:new 0 0 1417.3 1984.3;" xml:space="preserve">
<style type="text/css">
	.st0{fill:#4B368A;}
	.st1{fill:#FFFFFF;}
	.st2{fill:#C99AFF;}
	.st3{fill:#925FFF;}
</style>
<g>
	<path class="st0" d="M1021.8,1176.4c0-6.3,0-12.5,0-18.8c0-1.8,0-3.7,0.1-5.5c0.2-2.7,1.6-4.5,4.4-4.5c6.7-0.1,13.3-0.1,20,0
		c2.7,0,4.2,1.7,4.5,4.4c0.1,1.3,0.1,2.7,0.1,4c0,25.1,0,50.2,0,75.4c0,7.5-0.9,8.3-8.3,8.3c-5,0-10,0.1-15-0.1
		c-4.4-0.1-5.6-1.4-5.9-5.7c0-0.3-0.1-0.7,0-1c1.9-10.6-2.6-18.5-9.8-25.7c-3.6-3.6-6.6-7.8-10.5-12.6c-0.2,2.5-0.4,3.8-0.4,5.2
		c0,10.6,0,21.3,0,31.9c0,6.7-1.1,7.8-7.8,7.8c-5.2,0-10.3,0.1-15.5,0c-4.5-0.1-5.8-1.2-5.8-5.7c-0.1-27-0.1-53.9,0-80.9
		c0-4.3,1.4-5.4,5.8-5.7c0.2,0,0.3,0,0.5,0c15.7-0.5,15.7-0.5,26.4,11.3c5.3,5.9,10.5,12,15.7,17.9
		C1020.8,1176.7,1021.3,1176.5,1021.8,1176.4z"/>
	<path class="st0" d="M789.3,1193.6c0,7.2,0,14.3,0,21.5c0,14.2-6,21.7-19.8,24.6c-13,2.8-26.1,2.9-39.1,0.1
		c-14.9-3.3-20.5-10.3-20.5-25.5c0-14.1,0-28.3,0-42.4c0-12.6,4.8-19.7,17-23.2c15.9-4.6,31.9-4.4,47.7,0.8
		c9.7,3.2,14.5,10.1,14.7,20.3C789.4,1177.7,789.3,1185.7,789.3,1193.6C789.3,1193.6,789.3,1193.6,789.3,1193.6z M759.9,1193.5
		C759.9,1193.5,759.9,1193.5,759.9,1193.5c0-3.2,0-6.3,0-9.5c0-12.2-1.6-13.6-13.9-12.5c-0.5,0-1,0.1-1.5,0.2
		c-3.3,0.4-5.1,2.3-5.1,5.6c0,11-0.1,22,0.1,32.9c0.1,3.9,2.8,5.7,7.7,6.1c7.7,0.5,11.7-0.8,12.5-4.4c0.3-1.1,0.2-2.3,0.2-3.5
		C759.9,1203.5,759.9,1198.5,759.9,1193.5z"/>
	<path class="st0" d="M428.8,1189.3c9.9,3.2,13.6,10.5,13.5,20.3c-0.1,7.5,0,15,0,22.5c-0.1,6.7-1,7.6-7.9,7.7
		c-5.2,0-10.3,0.1-15.5,0c-4.9-0.1-5.8-0.8-6.1-5.8c-0.2-5.1-0.2-10.3-0.1-15.5c0.1-6.5-1.1-7.9-7.7-8c-3.2,0-6.3,0.1-9.5,0
		c-3.6-0.2-5.1,1.1-5,4.9c0.2,6.1,0.1,12.3,0,18.5c-0.1,4.9-1,5.9-5.9,6c-5.8,0.1-11.7,0.1-17.5,0c-4.6-0.1-6-1.4-6-6
		c-0.1-26.6-0.1-53.3,0-79.9c0-4.8,1.5-6.2,6.3-6.2c14.6-0.1,29.3-0.2,43.9,0.1c7.6,0.2,14.9,1.9,19.2,9.4
		C435.7,1165.5,434.9,1181.6,428.8,1189.3z M390.7,1186.5c3.7,0,6.6,0.2,9.6,0c2.9-0.2,4.7-2,4.8-4.8c0.2-3.4,1.4-7.8-2.5-9.3
		c-3-1.2-6.8-0.5-10.2-0.4c-0.6,0-1.5,1.7-1.5,2.7C390.6,1178.3,390.7,1181.9,390.7,1186.5z"/>
	<path class="st0" d="M927.6,1217.7c-6.9,0-13-0.1-19.1,0.2c-0.9,0-2.4,2.1-2.5,3.3c-0.3,4.1,0,8.3-0.3,12.5c-0.3,5-1.5,6-6.5,6
		c-5.5,0-11-0.1-16.5,0c-3.8,0.1-5.7-1.9-5.7-5.4c0.1-19.2-2.4-38.6,6.3-57c3.6-7.6,6.2-15.8,9.1-23.7c1.6-4.4,4.4-6.2,9-6.2
		c10.3,0.1,20.6,0.1,30.9,0c4.5,0,7.5,1.6,9.1,6.1c3.7,10.3,8.3,20.4,11.5,30.8c2.2,7,3.3,14.5,3.8,21.9c0.6,8.8,0.2,17.6,0.2,26.4
		c0,5.9-1.1,6.9-7.1,7c-5.2,0-10.3,0-15.5,0c-5.9-0.1-6.8-1-6.8-7.1C927.6,1228,927.6,1223.4,927.6,1217.7z M925.9,1193
		c-2-6.4-3.6-12.3-5.8-17.9c-1.2-3.1-5.9-3.2-7-0.1c-2.2,5.8-3.8,11.8-5.8,18C913.8,1193,919.5,1193,925.9,1193z"/>
	<path class="st0" d="M1092.3,1239.7c-7,0-14,0.1-21,0c-4.6-0.1-5.6-1-5.7-5.6c-0.1-4.3-0.1-8.7,0-13c0.1-4.8,1-5.9,5.9-6
		c8.8-0.3,17.6-0.2,26.5-0.3c1.5,0,3,0,4.5,0c2.3,0,4.6-0.3,4.8-3.1c0.2-2.7-1.7-3.6-4.1-4c-6.4-0.9-12.8-1.8-19.2-3
		c-13.2-2.3-18.3-8.5-18.3-21.8c0-4.3,0-8.7,0-13c0.1-11.6,6.3-19.3,17.7-21.3c4.2-0.8,8.6-0.9,12.9-1c10-0.1,20-0.1,30,0
		c5.1,0,6.5,1.4,6.6,6.5c0.1,4,0.1,8,0,12c-0.1,5.1-1.5,6.4-6.7,6.5c-7.3,0.1-14.7,0-22,0c-1.3,0-2.7,0-4,0
		c-2.3,0.1-4.9,0.5-4.6,3.2c0.2,1.5,2.5,3.5,4.1,3.9c3.8,1,7.9,1,11.8,1.8c5.2,1,10.5,2,15.4,3.7c6.7,2.4,9.7,8,10.1,14.8
		c0.3,6.6,0.4,13.3,0,20c-0.6,11.4-10.1,19.3-23.6,19.7C1106.2,1239.9,1099.3,1239.7,1092.3,1239.7z"/>
	<path class="st0" d="M541.5,1193.6c0-12.1-0.1-24.3,0-36.4c0.1-9.1,0.7-9.7,9.5-9.7c11.8,0,23.6-0.2,35.4,0.1
		c4.4,0.1,9,0.6,13.3,1.8c9.8,2.6,15.2,9.3,15.7,19.4c0.4,6.8,0.2,13.6,0.1,20.4c-0.1,15.1-7.9,23.6-22.9,24.6
		c-5.3,0.3-10.6,0.4-15.9,0.4c-4.7,0-5.2,0.4-5.3,5c-0.1,4.3,0,8.6,0,13c-0.1,6.5-1.2,7.6-7.5,7.6c-5,0-10,0-15,0
		c-6.2,0-7.1-1-7.4-7.2c0-0.3,0-0.7,0-1C541.5,1218.9,541.5,1206.3,541.5,1193.6z M571.6,1190.5c5.5-0.9,11.9,2.7,14.7-2.6
		c1.9-3.6,1.8-10.2-0.3-13.7c-3-4.8-9.2-1.9-14.4-2.1C571.6,1178.4,571.6,1184,571.6,1190.5z"/>
	<path class="st0" d="M527.7,1169.7c2.8,11.2-2.5,22.1-11.2,31.9c-1.3,1.5-2.2,3.4-3.6,4.8c-7.3,7.6-10.9,16.3-9.5,27.1
		c0.7,5-1,6.1-6.1,6.2c-5.8,0.1-11.7,0.1-17.5,0c-5.3-0.1-7.2-1.4-6.5-6.4c1.5-11-2.5-19.7-9.6-27.6c-3.7-4.1-6.6-8.8-9.9-13.1
		c-3.1-4.1-4.8-8.6-4.7-13.9c0.1-8.3,0-16.6,0.1-25c0-5,1.2-6.2,6.2-6.2c5.5-0.1,11-0.1,16.5,0c5.2,0.1,6.5,1.3,6.6,6.4
		c0.1,6.5-0.1,13,0.1,19.5c0.1,6.3,4.4,10.6,8,15.1c1.4,1.8,4.1,1.2,5.6-1c3.8-5.6,8-10.9,7.1-18.6c-0.6-5.3-0.1-10.6-0.1-16
		c0-3.8,1.9-5.5,5.5-5.5c5.8,0,11.7-0.1,17.5,0c4.4,0.1,5.5,1.3,5.6,5.8C527.7,1158.1,527.7,1162.8,527.7,1169.7z"/>
	<path class="st0" d="M280.3,1193.6c0-7.3-0.1-14.6,0-22c0.1-11.1,5.6-18.7,16.2-21.9c3.5-1.1,7.1-1.9,10.7-2
		c11.5-0.3,23-0.2,34.5-0.1c4.6,0,5.8,1.4,5.9,6.1c0.1,4,0.1,8,0,12c-0.1,5.9-1.1,7.1-6.9,7.1c-7.3,0.1-14.6,0-22,0
		c-7.2,0-8.9,1.8-8.9,8.8c0,8.7-0.1,17.3,0,26c0,5.1,1.7,6.9,6.9,7c7.8,0.1,15.6,0,23.5,0.1c6.4,0.1,7.4,1.2,7.5,7.7
		c0,4.2,0,8.3-0.1,12.5c-0.1,2.9-1.5,4.9-4.5,4.8c-14.1-0.2-28.3,0.3-42.3-1.1c-13.6-1.4-20.3-10.3-20.4-24
		C280.3,1207.6,280.3,1200.6,280.3,1193.6z"/>
	<path class="st0" d="M835.5,1172.9c-2.2,11.3-1.4,12.4,9.1,12.4c3.7,0,7.3,0.1,11,0c3.7-0.1,5.6,1.5,5.5,5.3c-0.1,4.7,0,9.3,0,14
		c0,3.8-1.8,5.4-5.5,5.4c-5.2,0-10.3,0.3-15.5,0.4c-1.6,0.1-3.2,0.2-5.4,0.3c0,6,0,11.6,0,17.2c-0.1,11.7-0.1,11.7-11.6,11.7
		c-3.3,0-6.7,0-10,0c-7.7,0-8.4-0.7-8.4-8.2c0-6,0-12,0-18c0-19.5,0-38.9,0-58.4c0-6.6,1-7.6,7.4-7.6c17.3,0,34.6,0,51.9,0
		c6.2,0,6.9,0.6,7.2,6.8c0.2,3.6,0,7.3-0.1,11c-0.1,6.4-0.9,7.3-7.2,7.3c-7.8,0.1-15.6,0-23.5,0
		C838.9,1172.7,837.1,1172.8,835.5,1172.9z"/>
	<path class="st0" d="M646.8,1205.9c0-9.5-0.1-19,0-28.4c0.1-3.5-1.3-4.8-4.7-4.6c-4.3,0.2-8.6,0.1-13,0c-4.6-0.1-5.9-1.4-6.1-6
		c-0.1-4.2-0.1-8.3,0-12.5c0.1-5.4,1.4-6.7,6.9-6.7c16.3,0,32.6,0,48.9,0c5,0,10-0.1,15,0c5.1,0.1,6.3,1.2,6.4,6.1
		c0.1,4.5,0.1,9,0,13.5c-0.1,4.3-1.4,5.5-5.8,5.7c-3.5,0.1-7,0-10.5,0c-6.7,0-6.7,0-6.7,7c0,15.3,0,30.6,0,45.9c0,1.5,0,3,0,4.5
		c0,9-0.5,9.5-9.6,9.6c-5,0-10,0.1-15,0c-4.9-0.1-5.8-0.9-5.8-5.9C646.7,1224.5,646.7,1215.2,646.8,1205.9
		C646.7,1205.9,646.8,1205.9,646.8,1205.9z"/>
	<path class="st1" d="M390.7,1186.5c0-4.6-0.1-8.3,0.1-11.9c0-1,1-2.6,1.5-2.7c3.4-0.2,7.2-0.8,10.2,0.4c3.9,1.6,2.7,6,2.5,9.3
		c-0.1,2.8-2,4.6-4.8,4.8C397.3,1186.7,394.4,1186.5,390.7,1186.5z"/>
	<path class="st1" d="M925.9,1193c-6.4,0-12,0-18.5,0c1.9-6.2,3.6-12.2,5.8-18c1.2-3.1,5.8-3,7,0.1
		C922.3,1180.7,923.9,1186.6,925.9,1193z"/>
	<path class="st1" d="M571.6,1190.5c0-6.5,0-12.1,0-18.3c5.2,0.2,11.4-2.7,14.4,2.1c2.1,3.4,2.2,10,0.3,13.7
		C583.5,1193.2,577.1,1189.6,571.6,1190.5z"/>
	<g>
		<path class="st0" d="M609.3,795.3c-3.2-7.3-3.1-20.2,0.6-29.2c2.1-5,4.9-9.8,7.4-14.7c2.3-4.5,0.5-8.1-4.5-8.4
			c-2.5-0.1-5,0.1-7.5,0.4c-19.6,2.3-36,11.1-48.1,26.5c-18.9,23.9-24.5,50.7-13.8,79.7c1.6,4.3,2.9,8.2,3.7,12.4
			C548.2,857.4,560.4,810.7,609.3,795.3z"/>
		<path class="st2" d="M698.5,828.7c-1.5-1.8-2.9-3.6-4.5-5.4c-19.3-22.4-43.8-32.2-73.2-29.4c-3.8,0.4-7.5,0.9-11.5,1.4
			c0,0,0,0,0,0c-48.9,15.4-61,62.1-62.1,66.7c0.6,3.4,0.8,6.8,0.5,10.7c-2.4,25.7,3.2,50.2,14.5,73.5c15.9,32.6,39.7,59,66.5,82.7
			c22.1,19.5,46.2,36.5,72,50.9c2.5,1.4,4.9,2.2,7.3,2.4v-249C704.4,833.2,701,831.7,698.5,828.7z"/>
		<path class="st3" d="M876.1,819.7c0.9-14.4-3.8-27.7-11.6-39.8c-13-20-31.1-32.6-54.8-36.4c-2-0.3-5,0.4-6,1.8
			c-1,1.4-0.2,4.2,0.1,6.3c0.1,0.8,0.8,1.4,1.2,2.2c5.6,9.6,8.2,20,6.8,31.1c-0.5,3.6-1.8,7.2-2.5,9.8c-9.6-0.6-18.1-1.9-26.4-1.6
			c-24.3,0.8-44.8,10.3-60.6,29.1c-2.1,2.5-4.1,5.3-6.5,7.6c-2.2,2.2-5,3.3-7.7,3.3v249c2.6,0.2,5.3-0.5,8.1-2.1
			c36.6-20.4,69.8-45.1,97.9-76.4c21.5-23.9,38.4-50.6,48.6-81.3c6.3-18.9,8.6-38.2,5.9-58c-0.4-2.8-0.5-11.7-0.5-14.5
			C868.3,831,875.4,831.3,876.1,819.7z"/>
		<path class="st0" d="M805.9,794.6c3.2-7.3,3.1-20.2-0.6-29.2c-2.1-5-4.9-9.8-7.4-14.7c-2.3-4.5-0.5-8.1,4.5-8.4
			c2.5-0.1,5,0.1,7.5,0.4c19.6,2.3,36,11.1,48.1,26.5c18.9,23.9,24.5,50.7,13.8,79.7c-1.6,4.3-2.9,8.2-3.7,12.4
			C866.9,856.7,854.8,810,805.9,794.6z"/>
	</g>
</g>
</svg>
